<svg data-name="Group 2053" xmlns="http://www.w3.org/2000/svg" width="36" height="36" viewBox="0 0 36 36">
    <defs>
        <clipPath id="ly1iagerwa">
            <path data-name="Rectangle 479" style="fill:none" d="M0 0h36v36H0z"/>
        </clipPath>
    </defs>
    <g data-name="Group 1592" style="clip-path:url(#ly1iagerwa)">
        <path data-name="Path 383" d="M36 18A18 18 0 1 1 18 0a18 18 0 0 1 18 18" style="fill:#6c6c6c"/>
        <path data-name="Path 384" d="M37.878 20.444A17.432 17.432 0 1 1 20.445 3.012a17.433 17.433 0 0 1 17.433 17.432" transform="translate(-2.445 -2.445)" style="fill:#fff"/>
        <path data-name="Path 385" d="M46.587 31.786a14.8 14.8 0 1 1-14.8-14.8 14.8 14.8 0 0 1 14.8 14.8" transform="translate(-13.787 -13.786)" style="fill:#d9d9d8"/>
        <path data-name="Path 386" d="M48.462 34.228A14.233 14.233 0 1 1 34.228 20a14.233 14.233 0 0 1 14.234 14.228" transform="translate(-16.228 -16.228)" style="fill:#fff"/>
        <path data-name="Path 387" d="M103.143 81.46a1.59 1.59 0 0 0-1.447 2.25s.211.018.557.084a1.151 1.151 0 0 1-.273-.742 1.163 1.163 0 1 1 1.608 1.072c.292.087.549.169.549.169a1.591 1.591 0 0 0-.994-2.833" transform="translate(-82.421 -66.114)" style="fill:#ffae00"/>
        <path data-name="Path 388" d="M105.6 86.2a1.1 1.1 0 1 0-1.139-.282c.15.03.32.067.508.116.134.025.385.095.63.167" transform="translate(-84.532 -68.224)" style="fill:#ffae00"/>
        <path data-name="Path 389" d="M62.6 60.34a5.688 5.688 0 0 1-.906-1.64 6.077 6.077 0 0 0-3.128-4.426s-.164-.087-.452-.216a1.762 1.762 0 0 1-.3.579l.042.019a.254.254 0 0 1 .115.334.239.239 0 0 1-.229.145.219.219 0 0 1-.092-.024 6.612 6.612 0 0 0-.393-.165A11.389 11.389 0 0 0 55 54.367h-.009a7.006 7.006 0 0 0-.309-.044l-.081-.01a.251.251 0 0 1 .047-.5h.025a1.8 1.8 0 0 1-.022-.26 1.771 1.771 0 0 1 .065-.469 7.75 7.75 0 0 0-2.037-.039 2.856 2.856 0 0 0 .317.434 6.822 6.822 0 0 1 1.153 1.4 4.161 4.161 0 0 1 .3 2.148c-.062 1.093-1.179 1.144-3.276.089 0 0 2.938 1.422 2.975-.408.056-2.687-.925-1.942-2.048-4.188 0 0-.394-1.659-3.342-1.67 0 0-2.414-.444-2.121-2.347a2.694 2.694 0 0 1 3.2-2.177 4.505 4.505 0 0 1 2 .843l.127-.556.6-.211c-1.733-1.2-5.5-2.546-7.8.783a6.248 6.248 0 0 0 .6 6.986 7.1 7.1 0 0 1-1.118-.634c.292.745 2.192 2.027 2.492 2.226a12.724 12.724 0 0 1 2.435 8.337h4.48v-1.3a.471.471 0 0 1 .471-.472h2.412a.472.472 0 0 1 .472.472l.011 1.3h4.524a13.96 13.96 0 0 0 .355-3.633.927.927 0 0 0 .7-.128m-15.887-4.8a15.174 15.174 0 0 1-1.882-1.486 5.653 5.653 0 0 0 2.045.673zm3.109-2.291a.3.3 0 1 1 .3-.3.3.3 0 0 1-.3.3" transform="translate(-35.698 -36.596)" style="fill:#c9001d"/>
    </g>
</svg>
